<svg xmlns="http://www.w3.org/2000/svg" viewBox="0 0 350 102"><defs><style>.cls-1{fill:#34778c;}</style></defs><g id="レイヤー_4" data-name="レイヤー 4"><path class="cls-1" d="M37.13,2.8C46.38,2.8,52,4.53,57.08,8.87a23.35,23.35,0,0,1,8.09,18.06c0,8.82-3.18,14.17-11.42,19.23,6.07,1.73,8.82,3.18,12.14,6.07,5.21,4.62,7.81,10.84,7.81,18.35,0,16.19-12.86,28.62-29.63,28.62H17.76c-11.56.58-16.62-4.48-16-16V18.84c0-6.79.43-8.53,2.31-11.13C6.63,4.24,10,2.8,15,2.8H37.13ZM34.82,39.51c5.49,0,9.39-3.76,9.39-9.25C44.21,25.49,39.88,22,34,22H23.83V39.51ZM39.15,80c4.92,0,7.09-.72,9.11-3.18a10.43,10.43,0,0,0,2.46-6.94c0-7.08-4-10.55-12.14-10.55H23.83V80Z"/><path class="cls-1" d="M132.38,79.4c4.77,0,5.93.15,8.24,1.3a9.86,9.86,0,0,1,4.92,8.53c0,3.61-2,7.23-4.92,8.67-2.31,1.16-3.32,1.3-8.24,1.3H106.22c-12,.58-17.2-4.62-16.62-16.76V16.09c0-5.34.29-6.64,1.44-9.25a11.31,11.31,0,0,1,9.69-5.49c3.9,0,8,2.31,9.54,5.49,1.3,2.61,1.44,3.76,1.44,9.25V79.4Z"/><path class="cls-1" d="M245.56,50.93c0,30.06-19.23,50.73-47.27,50.73-29,0-48-20.38-48-51.6,0-15.47,5.63-29,15.75-37.87A47.53,47.53,0,0,1,198,.34C226.19.34,245.56,20.86,245.56,50.93Zm-71.69-.87c0,19.37,9.39,31.8,24.28,31.8C212.6,81.86,222,69.57,222,50.93s-9.4-30.79-23.85-30.79S173.87,32.28,173.87,50.06Z"/><path class="cls-1" d="M314.94,61.91c-4.77,0-5.93-.14-8.24-1.3-2.89-1.44-4.92-5.06-4.92-8.67a9.86,9.86,0,0,1,4.92-8.53c2.31-1.15,3.32-1.3,8.24-1.3h21.53c8.39,0,11.85,4.19,11.85,14a47.18,47.18,0,0,1-12.57,32.52c-8.24,8.82-18.5,13-31.65,13-28.19,0-47.85-20.52-47.85-50.15,0-29.92,20.53-51.17,49.44-51.17,18.64,0,36.13,9.68,36.13,20A10.12,10.12,0,0,1,332,30.11c-3,0-4-.43-13.44-6.36a29.93,29.93,0,0,0-13.88-3.61c-14.74,0-24.86,12.58-24.86,30.93,0,18.79,9.83,30.79,25.15,30.79,6.94,0,12.14-2.46,15.9-7.37,2.46-3.33,3.62-6.22,4.77-12.58Z"/></g></svg>